<svg width="41" height="41" viewBox="0 0 41 41" fill="none" xmlns="http://www.w3.org/2000/svg">
<g clip-path="url(#clip0_23_4295)">
<path d="M20.4 40.8C31.6666 40.8 40.8 31.6666 40.8 20.4C40.8 9.13339 31.6666 0 20.4 0C9.13339 0 0 9.13339 0 20.4C0 31.6666 9.13339 40.8 20.4 40.8Z" fill="#1265FF"/>
<path d="M30.6301 22.17L28.9001 23.9L24.6301 28.17C24.1501 28.65 23.5101 28.9 22.8801 28.9C22.2501 28.9 21.6101 28.66 21.1301 28.17C20.1601 27.2 20.1601 25.64 21.1301 24.67L22.9201 22.88H11.9101C10.5401 22.88 9.43005 21.77 9.43005 20.4C9.43005 19.72 9.71005 19.1 10.1601 18.65C10.6101 18.2 11.2301 17.92 11.9101 17.92H22.9201L21.1601 16.16C20.1901 15.19 20.1601 13.58 21.1401 12.62C21.6201 12.14 22.2501 11.91 22.8801 11.91C23.5101 11.91 24.1501 12.15 24.6301 12.64L28.9001 16.91L30.6301 18.64C31.6101 19.62 31.6101 21.2 30.6301 22.18V22.17Z" fill="white"/>
</g>
<defs>
<clipPath id="clip0_23_4295">
<rect width="40.8" height="40.8" fill="white"/>
</clipPath>
</defs>
</svg>
